<?xml version="1.0" encoding="utf-8"?>
<!-- Generator: Adobe Illustrator 16.0.0, SVG Export Plug-In . SVG Version: 6.00 Build 0)  -->
<!DOCTYPE svg PUBLIC "-//W3C//DTD SVG 1.1//EN" "http://www.w3.org/Graphics/SVG/1.1/DTD/svg11.dtd">
<svg version="1.1" id="Layer_1" xmlns="http://www.w3.org/2000/svg" xmlns:xlink="http://www.w3.org/1999/xlink" x="0px" y="0px"
	 width="79.869px" height="40.902px" viewBox="0 0 79.869 40.902" enable-background="new 0 0 79.869 40.902" xml:space="preserve">
<g>
	<path fill="#00B560" d="M39.935,0.5c17.313,0,31.706,10.679,38.438,17.521c1.328,1.351,1.328,3.51,0,4.859
		c-6.731,6.842-21.124,17.522-38.438,17.522c-17.315,0-31.707-10.681-38.438-17.522c-1.329-1.35-1.329-3.509,0-4.859
		C8.228,11.179,22.62,0.5,39.935,0.5z"/>
	<circle fill="#78EAB1" cx="39.935" cy="20.451" r="19.951"/>
	<path opacity="0.1" enable-background="new    " d="M29.612,3.375c-5.771,3.496-9.629,9.836-9.629,17.075
		c0,11.02,8.933,19.952,19.952,19.952c4.759,0,9.128-1.668,12.557-4.448C22.166,43.315,19.983,14.218,29.612,3.375z"/>
	<circle fill="#00B560" cx="39.935" cy="20.451" r="9.774"/>
	<path opacity="0.15" enable-background="new    " d="M2.199,17.322c6.696-4.136,21.648-12.74,37.736-12.74
		c16.086,0,31.039,8.604,37.735,12.74C70.673,10.477,56.669,0.5,39.935,0.5C23.2,0.5,9.196,10.477,2.199,17.322z"/>
	<g opacity="0.1">
		<path d="M52.215,31.596c-0.257,0-0.515-0.086-0.729-0.259l-1.41-1.146c-0.494-0.404-0.569-1.131-0.168-1.626
			c0.404-0.495,1.131-0.569,1.625-0.168l1.41,1.146c0.496,0.403,0.57,1.131,0.168,1.626C52.884,31.449,52.55,31.596,52.215,31.596z"
			/>
		<path d="M55.078,26.224c-0.112,0-0.226-0.017-0.338-0.051l-1.738-0.529c-0.61-0.188-0.954-0.833-0.768-1.441
			c0.185-0.611,0.831-0.954,1.441-0.77l1.738,0.531c0.61,0.185,0.954,0.832,0.768,1.441C56.03,25.902,55.573,26.224,55.078,26.224z"
			/>
		<path d="M38.479,37.369c-0.036,0-0.071-0.002-0.107-0.004c-0.636-0.059-1.104-0.621-1.044-1.257l0.167-1.811
			c0.058-0.637,0.622-1.101,1.257-1.044c0.635,0.058,1.103,0.621,1.044,1.257l-0.168,1.811
			C39.572,36.92,39.068,37.369,38.479,37.369z"/>
		<path d="M24.6,25.538c-0.515,0-0.985-0.347-1.118-0.868c-0.159-0.619,0.213-1.247,0.832-1.407l1.761-0.451
			c0.619-0.158,1.248,0.215,1.406,0.832c0.159,0.619-0.214,1.247-0.832,1.407l-1.761,0.451C24.791,25.527,24.694,25.538,24.6,25.538
			z"/>
		<path d="M32.473,9.745c-0.384,0-0.759-0.19-0.979-0.54l-0.968-1.537c-0.34-0.541-0.177-1.254,0.362-1.594
			c0.541-0.34,1.254-0.177,1.593,0.362l0.968,1.539c0.34,0.54,0.178,1.254-0.362,1.594C32.896,9.688,32.683,9.745,32.473,9.745z"/>
		<path d="M46.421,9.186c-0.18,0-0.363-0.042-0.535-0.132c-0.564-0.295-0.782-0.993-0.488-1.558l0.842-1.612
			c0.296-0.565,0.994-0.783,1.56-0.488c0.564,0.295,0.784,0.993,0.489,1.559l-0.843,1.61C47.241,8.959,46.837,9.186,46.421,9.186z"
			/>
	</g>
</g>
</svg>
