<?xml version="1.0" encoding="utf-8"?>
<!-- Generator: Adobe Illustrator 16.0.0, SVG Export Plug-In . SVG Version: 6.00 Build 0)  -->
<!DOCTYPE svg PUBLIC "-//W3C//DTD SVG 1.1//EN" "http://www.w3.org/Graphics/SVG/1.1/DTD/svg11.dtd">
<svg version="1.1" id="Layer_1" xmlns="http://www.w3.org/2000/svg" xmlns:xlink="http://www.w3.org/1999/xlink" x="0px" y="0px"
	 width="118.646px" height="104.476px" viewBox="0 0 118.646 104.476" enable-background="new 0 0 118.646 104.476"
	 xml:space="preserve">
<g>
	<path fill="#00B560" d="M68.24,92.981C39.188,67.833,21.55,51.167,21.55,31.822c0-12.71,6.864-23.588,17.488-27.711l0.347-0.135
		l0.351,0.125c13.067,4.662,18.74,17.124,18.796,17.249l0.733,1.643l0.733-1.644c0.124-0.273,3.046-6.589,9.408-11.857
		c5.726-4.739,12.369-7.143,19.746-7.143c3.132,0,6.156,0.516,8.988,1.535c10.994,3.95,18.099,14.917,18.099,27.938
		c0,19.345-17.64,36.011-46.69,61.159l-0.654,0.566L68.24,92.981z"/>
	<path fill="#00B560" d="M68.895,92.225C40.027,67.236,22.55,50.546,22.55,31.822c0-12.36,6.592-22.798,16.85-26.779
		c12.646,4.512,18.163,16.589,18.218,16.713l1.647,3.689l1.646-3.689c0.027-0.06,2.895-6.33,9.133-11.494
		c5.542-4.587,11.97-6.913,19.108-6.913c3.017,0,5.927,0.497,8.65,1.476c10.592,3.806,17.437,14.403,17.437,26.998
		C115.239,50.546,97.761,67.236,68.895,92.225z"/>
	<circle fill="#2A4481" cx="98.898" cy="13.681" r="1.545"/>
	<circle fill="#2A4481" cx="98.898" cy="13.681" r="0.545"/>
	<path fill="#2A4481" d="M59.323,104.476c-0.37,0-0.729-0.133-1.01-0.375c-2.245-1.946-4.451-3.85-6.617-5.719
		C21.683,72.485,0,53.776,0,31.822C0,13.68,12.654,0,29.436,0c9.09,0,17.385,3.525,23.99,10.195
		c1.948,1.967,3.705,4.153,5.223,6.498l0.675,1.042l0.675-1.042c1.518-2.344,3.274-4.53,5.221-6.498C71.826,3.525,80.122,0,89.21,0
		c8.279,0,15.841,3.374,21.292,9.5c5.252,5.904,8.145,13.832,8.145,22.322c0,21.945-21.716,40.687-51.772,66.626
		c-2.184,1.885-4.344,3.748-6.538,5.651C60.053,104.343,59.693,104.476,59.323,104.476z M29.436,3.09
		C14.416,3.09,3.09,15.442,3.09,31.822c0,20.533,21.192,38.821,50.523,64.133c1.705,1.471,5.71,4.933,5.71,4.933l0.526-0.455
		c2.139-1.851,4.255-3.673,6.345-5.472c27.578-23.744,49.362-42.499,49.362-63.139c0-16.38-11.326-28.732-26.347-28.732
		c-8.306,0-15.599,3.082-21.677,9.161c-4.551,4.553-6.713,9.21-6.803,9.407c-0.246,0.548-0.8,0.905-1.406,0.905
		c-0.611-0.001-1.164-0.359-1.411-0.912c-0.086-0.189-2.221-4.819-6.801-9.4C45.035,6.172,37.742,3.09,29.436,3.09z"/>
	<path fill="#2A4481" d="M59.323,103.476c-0.093,0-0.23-0.023-0.357-0.133c-2.243-1.944-4.45-3.849-6.616-5.718
		C22.539,71.903,1,53.319,1,31.822C1,14.25,13.225,1,29.436,1c8.816,0,16.866,3.423,23.28,9.899c1.898,1.917,3.612,4.05,5.093,6.338
		l1.515,2.339l1.514-2.339c1.481-2.288,3.194-4.419,5.093-6.337C72.345,4.423,80.395,1,89.21,1c7.991,0,15.286,3.255,20.545,9.165
		c5.088,5.72,7.892,13.411,7.892,21.657c0,21.488-21.573,40.105-51.43,65.872c-2.141,1.848-4.32,3.729-6.536,5.649
		C59.554,103.453,59.416,103.476,59.323,103.476z M29.436,2.09C13.846,2.09,2.09,14.872,2.09,31.822
		c0,20.991,21.339,39.405,50.872,64.892c1.702,1.469,3.43,2.96,5.181,4.476l1.181,1.021l1.181-1.021
		c2.138-1.851,4.254-3.673,6.343-5.471c27.772-23.911,49.71-42.799,49.71-63.896c0-16.95-11.757-29.732-27.347-29.732
		c-8.58,0-16.111,3.181-22.384,9.454c-4.76,4.761-6.983,9.65-7.006,9.699c-0.087,0.193-0.282,0.32-0.496,0.32
		c-0.216,0-0.411-0.125-0.498-0.32c-0.096-0.21-2.302-4.993-7.007-9.699C45.548,5.271,38.017,2.09,29.436,2.09z"/>
	<path fill="#2A4481" d="M97.024,57.503c-0.345,0-0.674-0.114-0.952-0.33c-0.338-0.273-0.539-0.643-0.581-1.052
		c-0.047-0.398,0.069-0.803,0.326-1.126c7.059-8.832,10.345-16.194,10.345-23.174c0-3.581-0.887-7.244-2.497-10.314
		c-0.191-0.365-0.229-0.784-0.105-1.178c0.123-0.394,0.392-0.716,0.757-0.908c0.221-0.116,0.468-0.177,0.715-0.177
		c0.576,0,1.101,0.317,1.369,0.827c1.865,3.557,2.851,7.62,2.851,11.75c0,7.718-3.501,15.693-11.018,25.1
		C97.942,57.29,97.501,57.503,97.024,57.503z"/>
	<path fill="#2A4481" d="M97.024,56.503c-0.126,0-0.238-0.042-0.339-0.12c-0.145-0.117-0.189-0.264-0.2-0.366
		c-0.012-0.102-0.001-0.254,0.115-0.4c7.205-9.015,10.562-16.576,10.562-23.795c0-3.74-0.928-7.568-2.611-10.779
		c-0.14-0.266-0.036-0.596,0.229-0.735c0.079-0.042,0.164-0.063,0.251-0.063c0.159,0,0.371,0.077,0.484,0.292
		c1.789,3.412,2.735,7.314,2.735,11.285c0,7.479-3.432,15.256-10.799,24.476C97.306,56.483,97.104,56.503,97.024,56.503
		L97.024,56.503z"/>
	<path fill="#2A4481" d="M52.277,77.701c-0.853,0-1.545-0.693-1.545-1.545V62.2H36.775c-0.852,0-1.545-0.693-1.545-1.545V46.562
		c0-0.852,0.693-1.545,1.545-1.545h13.957V31.061c0-0.852,0.692-1.545,1.545-1.545h14.092c0.853,0,1.545,0.693,1.545,1.545v13.956
		h13.957c0.852,0,1.545,0.693,1.545,1.545v14.093c0,0.852-0.693,1.545-1.545,1.545H67.914v13.956c0,0.852-0.692,1.545-1.545,1.545
		H52.277z M64.824,74.611V60.655c0-0.852,0.693-1.545,1.545-1.545h13.957V48.107H66.369c-0.852,0-1.545-0.693-1.545-1.545V32.606
		H53.822v13.956c0,0.852-0.693,1.545-1.545,1.545H38.32V59.11h13.957c0.852,0,1.545,0.693,1.545,1.545v13.956H64.824z"/>
	<path fill="#2A4481" d="M52.277,76.701c-0.301,0-0.545-0.244-0.545-0.545V61.2H36.775c-0.301,0-0.545-0.244-0.545-0.545V46.562
		c0-0.3,0.244-0.545,0.545-0.545h14.957V31.061c0-0.301,0.244-0.545,0.545-0.545h14.092c0.301,0,0.545,0.244,0.545,0.545v14.956
		h14.957c0.301,0,0.545,0.245,0.545,0.545v14.093c0,0.301-0.244,0.545-0.545,0.545H66.914v14.956c0,0.301-0.244,0.545-0.545,0.545
		H52.277z M37.32,60.11h14.957c0.3,0,0.545,0.244,0.545,0.545v14.956h13.002V60.655c0-0.301,0.245-0.545,0.545-0.545h14.957V47.107
		H66.369c-0.3,0-0.545-0.244-0.545-0.545V31.606H52.822v14.956c0,0.301-0.245,0.545-0.545,0.545H37.32V60.11z"/>
</g>
</svg>
