<?xml version="1.0" encoding="utf-8"?>
<!-- Generator: Adobe Illustrator 16.0.0, SVG Export Plug-In . SVG Version: 6.00 Build 0)  -->
<!DOCTYPE svg PUBLIC "-//W3C//DTD SVG 1.1//EN" "http://www.w3.org/Graphics/SVG/1.1/DTD/svg11.dtd">
<svg version="1.1" id="Capa_1" xmlns="http://www.w3.org/2000/svg" xmlns:xlink="http://www.w3.org/1999/xlink" x="0px" y="0px"
	 width="512px" height="512px" viewBox="0 0 512 512" enable-background="new 0 0 512 512" xml:space="preserve">
<g>
	<circle fill="#00B560" cx="236.056" cy="275.944" r="236.056"/>
	<circle fill="#C1EAD4" stroke="#2A4481" stroke-miterlimit="10" cx="236.057" cy="275.944" r="171.169"/>
	<circle fill="#00B560" cx="236.057" cy="275.944" r="106.281"/>
	<circle fill="#2A4481" cx="236.057" cy="275.944" r="41.394"/>
	<path opacity="0.15" enable-background="new    " d="M236.056,39.887c-6.886,0-13.698,0.312-20.434,0.89
		c120.8,10.361,215.622,111.682,215.622,235.167c0,123.483-94.822,224.806-215.622,235.167c6.736,0.577,13.548,0.89,20.434,0.89
		c130.37,0,236.056-105.686,236.056-236.057C472.112,145.574,366.427,39.887,236.056,39.887z"/>
	<g>
		<path fill="#2A4481" d="M454.893,1.077l-51.784,51.785c-2.227,2.226-3.389,5.3-3.19,8.441l2.999,47.781l61.011-61.011
			l-2.802-44.64C460.929,0.291,457.119-1.149,454.893,1.077L454.893,1.077z"/>
		<path fill="#2A4481" d="M510.924,57.107l-51.785,51.785c-2.226,2.226-5.3,3.388-8.44,3.19l-47.781-2.999l61.011-61.011
			l44.641,2.802C511.709,51.071,513.149,54.882,510.924,57.107L510.924,57.107z"/>
		<g>
			<path fill="#BFBFBF" d="M236.056,283.667c-1.976,0-3.953-0.754-5.462-2.263c-3.016-3.016-3.016-7.906,0-10.922L488.551,12.526
				c3.018-3.016,7.907-3.016,10.924,0s3.017,7.907,0,10.923L241.518,281.404C240.01,282.913,238.032,283.667,236.056,283.667z"/>
		</g>
	</g>
</g>
</svg>
