<?xml version="1.0" encoding="utf-8"?>
<!-- Generator: Adobe Illustrator 16.0.0, SVG Export Plug-In . SVG Version: 6.00 Build 0)  -->
<!DOCTYPE svg PUBLIC "-//W3C//DTD SVG 1.1//EN" "http://www.w3.org/Graphics/SVG/1.1/DTD/svg11.dtd">
<svg version="1.1" id="Layer_1" xmlns="http://www.w3.org/2000/svg" xmlns:xlink="http://www.w3.org/1999/xlink" x="0px" y="0px"
	 width="130.452px" height="27.696px" viewBox="0 0 130.452 27.696" enable-background="new 0 0 130.452 27.696"
	 xml:space="preserve">
<path fill="#FFFFFF" d="M4.679,10.216h1.875l-0.667,1.86H4.012L4.679,10.216z M8.114,5.764L6.971,8.958H5.139l1.13-3.194H4.871
	L3.736,8.958H1.421l-0.446,1.258h2.307L2.621,12.06H0.446L0,13.321h2.188L1.047,16.5h1.392l1.156-3.179h1.847L4.298,16.5h1.399
	l1.142-3.179h2.248l0.447-1.261H7.271l0.659-1.844h2.146l0.431-1.258H8.378l1.127-3.194H8.114z"/>
<polygon fill="#FFFFFF" points="14.364,16.43 12.292,8.01 11.088,8.01 11.466,5.826 16.558,5.826 16.146,8.01 14.92,8.01 
	15.922,13.035 18.774,8.01 17.517,8.01 17.905,5.826 22.875,5.826 22.496,8.01 21.46,8.01 16.146,16.43 "/>
<path fill="#FFFFFF" d="M26.641,14.236h1.48l-0.387,2.194h-1.478h-4.117l0.389-2.194h1.46l1.125-6.227h-1.481l0.379-2.184h4.11
	L26.641,14.236z M24.947,4.044l0.478-2.764h3.355L28.3,4.044H24.947z"/>
<g>
	<defs>
		<rect id="SVGID_1_" width="130.452" height="27.696"/>
	</defs>
	<clipPath id="SVGID_2_">
		<use xlink:href="#SVGID_1_"  overflow="visible"/>
	</clipPath>
	<path clip-path="url(#SVGID_2_)" fill="#FFFFFF" d="M34.607,7.119h0.198c0.156-0.497,0.399-0.882,0.732-1.16
		c0.329-0.274,0.716-0.411,1.162-0.411c0.505,0,0.909,0.153,1.209,0.457c0.302,0.305,0.454,0.708,0.454,1.213
		c0,0.573-0.193,1.05-0.572,1.433c-0.376,0.384-0.856,0.573-1.434,0.573c-0.456,0-0.817-0.126-1.094-0.382
		c-0.274-0.259-0.457-0.64-0.546-1.144h-0.211l-1.158,6.539h1.682l-0.379,2.194h-5.804l0.388-2.194h1.46l1.126-6.227h-1.483
		l0.38-2.185h4.112L34.607,7.119z"/>
	<path clip-path="url(#SVGID_2_)" fill="#FFFFFF" d="M48.232,5.825h4.01l-0.39,2.184h-1.414l-1.114,6.227h1.502l-0.388,2.194h-4.145
		l0.199-0.867c-0.497,0.373-1.018,0.652-1.564,0.843c-0.546,0.187-1.112,0.283-1.698,0.283c-1.397,0-2.544-0.469-3.443-1.409
		c-0.899-0.939-1.35-2.145-1.35-3.616c0-1.717,0.584-3.165,1.746-4.345c1.161-1.182,2.605-1.771,4.328-1.771
		c0.742,0,1.411,0.135,2.012,0.406c0.596,0.272,1.088,0.66,1.475,1.165L48.232,5.825z M43.92,14.607
		c1.039,0,1.891-0.378,2.557-1.131c0.665-0.757,0.997-1.723,0.997-2.902c0-0.863-0.272-1.575-0.813-2.134
		c-0.543-0.56-1.238-0.844-2.085-0.844c-0.993,0-1.827,0.39-2.499,1.166c-0.675,0.777-1.011,1.743-1.011,2.902
		c0,0.898,0.258,1.613,0.769,2.144C42.349,14.34,43.043,14.607,43.92,14.607"/>
	<polygon clip-path="url(#SVGID_2_)" fill="#FFFFFF" points="56.286,14.237 57.767,14.237 57.379,16.431 51.785,16.431 
		52.175,14.237 53.634,14.237 55.762,2.194 54.28,2.194 54.66,0 58.77,0 	"/>
	<path clip-path="url(#SVGID_2_)" fill="#FFFFFF" d="M64.542,5.825l-0.279,1.294c0.66-0.52,1.31-0.913,1.949-1.175
		c0.639-0.264,1.267-0.396,1.884-0.396c0.704,0,1.276,0.155,1.709,0.467c0.434,0.313,0.711,0.759,0.832,1.337
		c0.667-0.593,1.349-1.042,2.047-1.347c0.7-0.305,1.39-0.457,2.075-0.457c0.846,0,1.499,0.221,1.958,0.663
		c0.46,0.441,0.692,1.065,0.692,1.867c0,0.14-0.012,0.312-0.034,0.517c-0.021,0.203-0.055,0.429-0.101,0.675l-0.868,4.967h1.481
		l-0.366,2.193h-5.495l0.335-2.193h1.481l0.825-4.711c0.021-0.127,0.04-0.243,0.051-0.347c0.009-0.104,0.016-0.203,0.016-0.299
		c0-0.343-0.098-0.602-0.293-0.782c-0.199-0.177-0.487-0.266-0.866-0.266c-0.445,0-0.925,0.129-1.437,0.386
		c-0.513,0.255-1.029,0.628-1.548,1.118l-0.845,4.901h1.454l-0.343,2.193h-5.515l0.355-2.193h1.461l0.847-4.711
		c0.013-0.091,0.025-0.182,0.033-0.274c0.006-0.091,0.01-0.218,0.01-0.372c0-0.343-0.095-0.602-0.294-0.782
		c-0.195-0.177-0.486-0.266-0.862-0.266c-0.44,0-0.907,0.127-1.404,0.378c-0.5,0.254-1.018,0.629-1.56,1.126l-0.87,4.901h1.483
		L64.15,16.43h-5.547l0.39-2.193h1.458l1.125-6.227h-1.481l0.381-2.185H64.542z"/>
	<path clip-path="url(#SVGID_2_)" fill="#FFFFFF" d="M89.119,5.825h4.01L92.74,8.009h-1.414l-1.115,6.227h1.503l-0.388,2.194H87.18
		l0.2-0.867c-0.497,0.373-1.02,0.652-1.563,0.843c-0.547,0.187-1.114,0.283-1.7,0.283c-1.395,0-2.544-0.469-3.444-1.409
		c-0.897-0.939-1.347-2.145-1.347-3.616c0-1.717,0.584-3.165,1.745-4.345c1.161-1.182,2.604-1.771,4.327-1.771
		c0.742,0,1.413,0.135,2.013,0.406c0.597,0.272,1.09,0.66,1.474,1.165L89.119,5.825z M84.807,14.607
		c1.039,0,1.894-0.378,2.559-1.131c0.661-0.757,0.996-1.723,0.996-2.902c0-0.863-0.271-1.575-0.813-2.134
		c-0.542-0.56-1.237-0.844-2.084-0.844c-0.996,0-1.828,0.39-2.502,1.166c-0.67,0.777-1.007,1.743-1.007,2.902
		c0,0.898,0.257,1.613,0.769,2.144C83.238,14.34,83.929,14.607,84.807,14.607"/>
	<path clip-path="url(#SVGID_2_)" fill="#FFFFFF" d="M95.715,8.01h-1.628l0.39-2.185h1.605l0.479-2.716
		c0.191-1.1,0.563-1.892,1.114-2.38C98.224,0.242,99.015,0,100.047,0c0.201,0,0.425,0.009,0.675,0.028
		c0.247,0.018,0.517,0.042,0.808,0.072l-0.346,2.027c-0.075-0.008-0.188-0.02-0.346-0.038c-0.156-0.017-0.267-0.028-0.335-0.028
		c-0.431,0-0.743,0.109-0.939,0.329c-0.197,0.219-0.362,0.711-0.494,1.474l-0.349,1.961h1.596l-0.38,2.185h-1.581l-1.115,6.227
		h1.594l-0.38,2.194h-5.847l0.386-2.194h1.596L95.715,8.01z"/>
	<path clip-path="url(#SVGID_2_)" fill="#FFFFFF" d="M104.338,14.236h1.481l-0.392,2.194h-5.592l0.39-2.194h1.46l1.125-6.227h-1.479
		l0.376-2.184h4.112L104.338,14.236z M102.644,4.044l0.479-2.764h3.352l-0.477,2.764H102.644z"/>
	<path clip-path="url(#SVGID_2_)" fill="#FFFFFF" d="M117.094,5.825h4.011l-0.391,2.184H119.3l-1.116,6.227h1.507L119.3,16.43
		h-4.147l0.203-0.867c-0.497,0.373-1.018,0.652-1.565,0.843c-0.545,0.187-1.11,0.283-1.698,0.283c-1.398,0-2.547-0.469-3.444-1.409
		c-0.898-0.939-1.348-2.145-1.348-3.616c0-1.717,0.581-3.165,1.747-4.345c1.158-1.182,2.601-1.771,4.323-1.771
		c0.743,0,1.414,0.135,2.013,0.406c0.598,0.272,1.09,0.66,1.477,1.165L117.094,5.825z M112.779,14.607
		c1.042,0,1.894-0.378,2.561-1.131c0.662-0.757,0.996-1.723,0.996-2.902c0-0.863-0.271-1.575-0.814-2.134
		c-0.543-0.56-1.235-0.844-2.082-0.844c-0.996,0-1.829,0.39-2.501,1.166c-0.673,0.777-1.009,1.743-1.009,2.902
		c0,0.898,0.255,1.613,0.768,2.144C111.211,14.34,111.905,14.607,112.779,14.607"/>
	<path clip-path="url(#SVGID_2_)" fill="#FFFFFF" d="M37.593,25.317c-0.37,0.151-1.052,0.343-1.801,0.343
		c-0.9,0-1.601-0.258-2.085-0.798c-0.483-0.538-0.644-1.231-0.644-1.865c0-1.063,0.426-2.17,1.251-2.909
		c0.682-0.598,1.601-0.949,2.625-0.949c0.786,0,1.318,0.18,1.507,0.293l-0.256,0.664c-0.332-0.161-0.767-0.275-1.346-0.275
		c-0.757,0-1.45,0.275-1.98,0.778c-0.597,0.559-0.958,1.469-0.958,2.34c0,1.233,0.617,2.047,2.039,2.047
		c0.378,0,0.738-0.075,0.976-0.179l0.36-1.905h-1.299l0.123-0.646h2.066L37.593,25.317z"/>
	<path clip-path="url(#SVGID_2_)" fill="#FFFFFF" d="M38.528,25.592l0.56-2.957c0.113-0.597,0.189-1.202,0.237-1.631h0.691
		c-0.038,0.323-0.075,0.646-0.123,0.995h0.029c0.293-0.625,0.786-1.098,1.402-1.098c0.067,0,0.162,0.008,0.218,0.018l-0.151,0.777
		c-0.049-0.008-0.124-0.019-0.209-0.019c-0.683,0-1.289,0.824-1.488,1.895l-0.379,2.02H38.528z"/>
	<path clip-path="url(#SVGID_2_)" fill="#FFFFFF" d="M45.644,22.815c0,1.412-1.004,2.881-2.539,2.881
		c-1.147,0-1.791-0.852-1.791-1.886c0-1.507,1.051-2.909,2.54-2.909C45.095,20.901,45.644,21.84,45.644,22.815 M42.128,23.782
		c0,0.748,0.408,1.289,1.081,1.289c0.929,0,1.63-1.193,1.63-2.266c0-0.53-0.246-1.279-1.071-1.279
		C42.783,21.526,42.119,22.729,42.128,23.782"/>
	<path clip-path="url(#SVGID_2_)" fill="#FFFFFF" d="M46.978,21.004l0.161,2.578c0.038,0.568,0.029,0.863,0.02,1.233h0.028
		c0.104-0.294,0.274-0.692,0.502-1.148l1.364-2.663h0.683l0.284,2.616c0.048,0.503,0.085,0.892,0.076,1.195h0.019
		c0.123-0.37,0.256-0.72,0.436-1.157l1.241-2.654h0.796l-2.264,4.589h-0.73L49.291,23.1c-0.048-0.427-0.066-0.815-0.066-1.213
		h-0.019c-0.19,0.436-0.323,0.786-0.532,1.193l-1.317,2.513h-0.73l-0.426-4.589H46.978z"/>
	<path clip-path="url(#SVGID_2_)" fill="#FFFFFF" d="M54.406,19.773l-0.237,1.231h1.099l-0.123,0.617h-1.099l-0.426,2.227
		c-0.048,0.256-0.086,0.493-0.086,0.739c0,0.274,0.133,0.436,0.436,0.436c0.133,0,0.266-0.01,0.37-0.027l-0.038,0.615
		c-0.143,0.059-0.379,0.086-0.607,0.086c-0.702,0-0.967-0.428-0.967-0.891c0-0.266,0.03-0.531,0.095-0.863l0.456-2.321h-0.665
		l0.124-0.617h0.654l0.199-1.032L54.406,19.773z"/>
	<path clip-path="url(#SVGID_2_)" fill="#FFFFFF" d="M55.077,25.592l1.28-6.729h0.786l-0.568,2.957h0.019
		c0.388-0.561,0.947-0.919,1.639-0.919c0.521,0,1.138,0.322,1.138,1.23c0,0.247-0.029,0.541-0.076,0.777l-0.512,2.683h-0.787
		l0.512-2.645c0.029-0.169,0.057-0.378,0.057-0.634c0-0.428-0.199-0.758-0.711-0.758c-0.607,0-1.374,0.711-1.564,1.742l-0.425,2.294
		H55.077z"/>
	<polygon clip-path="url(#SVGID_2_)" fill="#FFFFFF" points="63.423,19.204 62.902,21.896 65.841,21.896 66.352,19.204 
		67.147,19.204 65.926,25.593 65.139,25.593 65.707,22.588 62.77,22.588 62.201,25.593 61.414,25.593 62.638,19.204 	"/>
	<path clip-path="url(#SVGID_2_)" fill="#FFFFFF" d="M70.131,25.592c0-0.274,0.048-0.711,0.104-1.186h-0.019
		c-0.502,0.949-1.127,1.29-1.782,1.29c-0.805,0-1.316-0.645-1.316-1.517c0-1.593,1.175-3.278,3.175-3.278
		c0.436,0,0.919,0.076,1.232,0.179l-0.465,2.388c-0.15,0.798-0.218,1.612-0.199,2.124H70.131z M70.642,21.592
		c-0.112-0.027-0.283-0.065-0.549-0.065c-1.184,0-2.151,1.242-2.161,2.511c0,0.512,0.181,1.015,0.787,1.015
		c0.653,0,1.431-0.853,1.658-2.075L70.642,21.592z"/>
	<path clip-path="url(#SVGID_2_)" fill="#FFFFFF" d="M74.951,25.413c-0.237,0.112-0.711,0.274-1.327,0.274
		c-1.185,0-1.762-0.796-1.762-1.772c0-1.564,1.155-3.005,2.805-3.005c0.428,0,0.815,0.123,0.958,0.199l-0.228,0.626
		c-0.18-0.085-0.437-0.171-0.778-0.171c-1.192,0-1.941,1.175-1.941,2.255c0,0.74,0.389,1.224,1.137,1.224
		c0.465,0,0.825-0.143,1.062-0.257L74.951,25.413z"/>
	<path clip-path="url(#SVGID_2_)" fill="#FFFFFF" d="M75.574,25.592l1.271-6.729h0.786l-0.806,4.217h0.02
		c0.142-0.161,0.312-0.331,0.425-0.465l1.622-1.611h0.966l-2,1.888l1.374,2.7H78.36l-1.099-2.266l-0.578,0.522l-0.331,1.743H75.574z
		"/>
	<path clip-path="url(#SVGID_2_)" fill="#FFFFFF" d="M79.716,25.592l0.88-4.588h0.788l-0.882,4.588H79.716z M80.739,19.726
		c0-0.304,0.236-0.53,0.521-0.53c0.283,0,0.464,0.209,0.464,0.492c-0.009,0.313-0.228,0.53-0.531,0.53
		C80.918,20.218,80.739,20.01,80.739,19.726"/>
	<path clip-path="url(#SVGID_2_)" fill="#FFFFFF" d="M81.647,25.592l0.615-3.251c0.104-0.512,0.162-0.958,0.219-1.337h0.701
		l-0.113,0.901h0.019c0.407-0.646,1.022-1.004,1.696-1.004c0.551,0,1.166,0.312,1.166,1.279c0,0.198-0.039,0.492-0.086,0.738
		l-0.511,2.673h-0.787l0.502-2.645c0.038-0.179,0.066-0.397,0.066-0.587c0-0.464-0.18-0.805-0.719-0.805
		c-0.561,0-1.356,0.672-1.565,1.809l-0.416,2.228H81.647z"/>
	<path clip-path="url(#SVGID_2_)" fill="#FFFFFF" d="M86.516,26.634c0.275,0.171,0.73,0.304,1.214,0.304
		c0.767,0,1.373-0.397,1.647-1.64l0.151-0.682h-0.027c-0.398,0.652-0.958,0.976-1.593,0.976c-0.919,0-1.393-0.777-1.393-1.592
		c-0.009-1.554,1.138-3.099,2.911-3.099c0.529,0,1.107,0.151,1.468,0.321l-0.702,3.79c-0.189,0.967-0.445,1.642-0.929,2.048
		c-0.455,0.398-1.071,0.512-1.602,0.512c-0.56,0-1.08-0.133-1.374-0.322L86.516,26.634z M90.032,21.688
		c-0.144-0.066-0.427-0.15-0.759-0.15c-1.146,0-1.933,1.191-1.943,2.331c0,0.502,0.182,1.098,0.884,1.098
		c0.672,0,1.354-0.852,1.523-1.754L90.032,21.688z"/>
	<path clip-path="url(#SVGID_2_)" fill="#FFFFFF" d="M94.009,23.573l-1.014,2.021H92.16l3.308-6.39h0.929l0.882,6.39h-0.807
		l-0.256-2.021H94.009z M96.15,22.948L95.904,21.1c-0.039-0.332-0.086-0.797-0.114-1.175h-0.019
		c-0.171,0.378-0.332,0.776-0.521,1.166l-0.958,1.856H96.15z"/>
	<path clip-path="url(#SVGID_2_)" fill="#FFFFFF" d="M97.779,26.634c0.274,0.171,0.729,0.304,1.213,0.304
		c0.768,0,1.374-0.397,1.648-1.64l0.151-0.682h-0.028c-0.397,0.652-0.957,0.976-1.592,0.976c-0.92,0-1.393-0.777-1.393-1.592
		c-0.009-1.554,1.137-3.099,2.91-3.099c0.529,0,1.107,0.151,1.468,0.321l-0.701,3.79c-0.19,0.967-0.446,1.642-0.93,2.048
		c-0.455,0.398-1.07,0.512-1.602,0.512c-0.56,0-1.08-0.133-1.373-0.322L97.779,26.634z M101.295,21.688
		c-0.143-0.066-0.427-0.15-0.759-0.15c-1.146,0-1.933,1.191-1.942,2.331c0,0.502,0.181,1.098,0.883,1.098
		c0.672,0,1.354-0.852,1.524-1.754L101.295,21.688z"/>
	<path clip-path="url(#SVGID_2_)" fill="#FFFFFF" d="M105.765,25.328c-0.34,0.198-0.899,0.36-1.516,0.36
		c-1.212,0-1.743-0.825-1.743-1.84c0-1.384,1.023-2.946,2.501-2.946c0.872,0,1.346,0.521,1.346,1.175
		c0,1.204-1.354,1.525-3.051,1.497c-0.038,0.199-0.01,0.627,0.095,0.873c0.181,0.406,0.549,0.616,1.023,0.616
		c0.54,0,0.948-0.173,1.232-0.323L105.765,25.328z M104.894,21.516c-0.749,0-1.309,0.729-1.497,1.45
		c1.231,0.01,2.198-0.15,2.198-0.861C105.595,21.725,105.311,21.516,104.894,21.516"/>
	<path clip-path="url(#SVGID_2_)" fill="#FFFFFF" d="M106.512,25.592l0.616-3.251c0.104-0.512,0.161-0.958,0.218-1.337h0.701
		l-0.113,0.901h0.019c0.408-0.646,1.023-1.004,1.696-1.004c0.551,0,1.166,0.312,1.166,1.279c0,0.198-0.037,0.492-0.085,0.738
		l-0.512,2.673h-0.787l0.502-2.645c0.038-0.179,0.066-0.397,0.066-0.587c0-0.464-0.18-0.805-0.719-0.805
		c-0.561,0-1.356,0.672-1.565,1.809l-0.416,2.228H106.512z"/>
	<path clip-path="url(#SVGID_2_)" fill="#FFFFFF" d="M114.489,25.413c-0.237,0.112-0.711,0.274-1.327,0.274
		c-1.185,0-1.762-0.796-1.762-1.772c0-1.564,1.155-3.005,2.805-3.005c0.427,0,0.815,0.123,0.958,0.199l-0.229,0.626
		c-0.179-0.085-0.436-0.171-0.777-0.171c-1.192,0-1.941,1.175-1.941,2.255c0,0.74,0.388,1.224,1.137,1.224
		c0.465,0,0.825-0.143,1.062-0.257L114.489,25.413z"/>
	<path clip-path="url(#SVGID_2_)" fill="#FFFFFF" d="M116.221,21.004l0.456,2.476c0.104,0.52,0.161,0.862,0.208,1.202h0.021
		c0.122-0.293,0.254-0.615,0.491-1.117l1.166-2.561h0.834l-1.715,3.488c-0.494,0.995-0.957,1.801-1.584,2.408
		c-0.511,0.52-1.069,0.739-1.336,0.795l-0.188-0.672c0.198-0.077,0.529-0.2,0.842-0.446c0.303-0.237,0.635-0.605,0.882-1.052
		c0.037-0.076,0.037-0.133,0.027-0.209l-0.917-4.313H116.221z"/>
	<polygon clip-path="url(#SVGID_2_)" fill="#FFFFFF" points="125.75,1.441 124.432,1.441 124.432,5.108 123.89,5.108 123.89,1.441 
		122.574,1.441 122.574,0.998 124.432,0.998 125.75,0.998 	"/>
	<polygon clip-path="url(#SVGID_2_)" fill="#FFFFFF" points="130.452,5.108 129.907,5.108 129.907,3.502 129.958,1.788 
		128.611,5.108 128.196,5.108 126.853,1.791 126.903,3.502 126.903,5.108 126.359,5.108 126.359,0.998 126.827,0.998 127.064,0.998 
		128.405,4.357 129.746,0.998 130.452,0.998 	"/>
</g>
</svg>
